<svg xmlns="http://www.w3.org/2000/svg" xmlns:xlink="http://www.w3.org/1999/xlink" viewBox="0 0 994.93 1333.9"><defs><style>.cls-1,.cls-12,.cls-16,.cls-17,.cls-4,.cls-5{fill:none;}.cls-11,.cls-2,.cls-3,.cls-6{fill:#fff;}.cls-16,.cls-2,.cls-3,.cls-5,.cls-6{stroke:#40525d;}.cls-17,.cls-2,.cls-5{stroke-linecap:round;}.cls-12,.cls-14,.cls-15,.cls-16,.cls-17,.cls-2,.cls-3,.cls-4,.cls-5,.cls-6{stroke-miterlimit:10;}.cls-16,.cls-17,.cls-2,.cls-5,.cls-6{stroke-width:6px;}.cls-4{stroke:#fff;}.cls-7{fill:#d3bfb5;}.cls-8{fill:#2b2526;}.cls-9{fill:#77215a;}.cls-10{fill:#c3c7c6;}.cls-12,.cls-14{stroke:#b6bec0;}.cls-12{stroke-width:4px;}.cls-13{fill:#d4bdb0;}.cls-14,.cls-15{fill:#b3babb;stroke-width:3px;}.cls-15{stroke:#b3babb;}.cls-17{stroke:#375651;}.cls-18{isolation:isolate;}.cls-19{clip-path:url(#clip-path);}.cls-20{fill:#050d18;}.cls-21{clip-path:url(#clip-path-2);}.cls-22{clip-path:url(#clip-path-3);}.cls-23{clip-path:url(#clip-path-4);}.cls-24{clip-path:url(#clip-path-5);}.cls-25{clip-path:url(#clip-path-6);}</style><clipPath id="clip-path"><polygon class="cls-1" points="109.45 331.32 85.87 187.06 150.99 190.35 174.56 334.62 109.45 331.32"/></clipPath><clipPath id="clip-path-2"><polygon class="cls-1" points="205.24 327.69 188.38 224.54 235.39 226.92 252.25 330.07 205.24 327.69"/></clipPath><clipPath id="clip-path-3"><polygon class="cls-1" points="279.91 323.53 256.8 182.13 277.07 183.16 300.18 324.56 279.91 323.53"/></clipPath><clipPath id="clip-path-4"><polygon class="cls-1" points="321.34 321.45 298.23 180.05 318.51 181.07 341.62 322.47 321.34 321.45"/></clipPath><clipPath id="clip-path-5"><polygon class="cls-1" points="364.34 319.65 347.49 216.52 394.86 218.92 411.71 322.05 364.34 319.65"/></clipPath><clipPath id="clip-path-6"><polygon class="cls-1" points="437.15 315.59 414.04 174.19 434.46 175.22 457.57 316.63 437.15 315.59"/></clipPath></defs><g id="Layer_2" data-name="Layer 2"><g id="Layer_1-2" data-name="Layer 1"><g id="Layer_2-2" data-name="Layer 2"><g id="Слой_1" data-name="Слой 1"><g id="_2" data-name=" 2"><g id="COMPUTER"><path class="cls-2" d="M59,508.14H487.31a17.76,17.76,0,0,1,17.76,17.74h0v4.7a17.76,17.76,0,0,1-17.76,17.75H59.89"/><polyline class="cls-3" points="385.26 745.52 385.26 549 423.93 549 423.93 744.62"/><polygon class="cls-4" points="385.26 561.34 385.26 549 423.93 549 423.93 591.89 385.26 561.34"/><polyline class="cls-5" points="385.26 730.52 385.26 549 423.93 549 423.93 742.72"/><polygon class="cls-6" points="425.5 490.48 425.5 501.36 268.27 463.15 111.04 501.36 111.04 490.48 251.81 444.86 251.81 310.19 286.78 310.19 286.78 445.53 425.5 490.48"/><path class="cls-6" d="M513.16,401.68H65.28c-5.28,0-9.61-4.48-10-10.18,0-.59-.11-1.18-.2-1.77L3.24,108.8a11.38,11.38,0,0,1,.77-7,10,10,0,0,1,8.94-6H460.83c5.28,0,9.61,4.49,10,10.19a14.81,14.81,0,0,0,.2,1.76l51.82,280.94a11.52,11.52,0,0,1-.77,7A10,10,0,0,1,513.16,401.68Z"/><path class="cls-6" d="M500.71,388.18H73.45c-5.1,0-9.23-4.54-9.23-10.16l-48-260.24c0-5.61,4.13-10.16,9.23-10.16H452.7c5.09,0,9.23,4.55,9.23,10.16l48,260.24C509.93,383.64,505.8,388.18,500.71,388.18Z"/></g><g id="WOMAN"><g id="LEGS"><g id="RIGHT"><g id="FOOT"><path class="cls-7" d="M634,1258.75l10.77-91.54c-35.85,5-52,0-52,0L605,1236.75c-.27,11.28-19.38,56.5-29.49,60.32S611.7,1312.5,634,1258.75Z"/><path class="cls-8" d="M549,1333.07h87.91s15-35,12.67-58.3c-3-30-16.37-33.51-16.37-33.51-12.33,0-9.15,38.08-32.68,51.35-11.73,6.61-21.76,2.46-31.9,6.29C545.93,1307.46,549,1333.07,549,1333.07Z"/></g><path id="LEG" class="cls-9" d="M499.42,835.7c7.81,17.72,57.82,142.19,93.35,331.51,0,0,16.66,6.51,52,0,0,0,32.15-229.12-3.28-302.33Z"/></g><g id="LEFT"><path id="LEG-2" class="cls-9" d="M778.5,601.81S828.94,758.27,802,817.93C757,917.28,499.42,835.7,499.42,835.7s56.24,85.57-9.17,330c0,0-2.36,9.94-52.9,2,0,0-62-352.5-62-427.62,0-61.5,88.82-80.64,234.07-67.72,0,0,19.19-21.34,33.64-66C643.1,606.3,685.42,622.68,778.5,601.81Z"/><g id="FOOT-2"><path class="cls-7" d="M479.72,1258.75l10.76-91.54c-35.84,5-52.76,0-52.76,0l13.06,69.54c-.26,11.28-19.38,56.5-29.49,60.32S457.46,1312.5,479.72,1258.75Z"/><path class="cls-8" d="M394.73,1333.07h87.92s15-35,12.66-58.3c-3-30-16.36-33.51-16.36-33.51-12.33,0-9.16,38.08-32.69,51.35-11.72,6.61-21.75,2.46-31.9,6.29C391.7,1307.46,394.73,1333.07,394.73,1333.07Z"/></g></g></g><g id="BLOUSE"><path id="BLOUSE-2" class="cls-10" d="M853.14,384.23c-17.54,71.66-42,196.86-42.69,213.84S690.8,625.9,637.85,610.29c0,0-14.63-84.14-18.29-129.72-27.75,39-56.06,69.3-75.3,69.3-70.6,0-187.06-39.59-195.89-49.09l5.13-26.7c29.19.68,172.43-16.56,172.43-16.56s56.92-144.82,94.14-174.73l.16-.14c24.44-22.56,87.89-29.79,102.11-33.29,14.71-3.62,89.73-13.8,89.73-13.8C837.52,252,868.75,320.41,853.14,384.23Z"/><g id="PATTERN"><path class="cls-11" d="M638.12,274.41a8.22,8.22,0,0,1-14.44,5.36,77.59,77.59,0,0,1,13.88-8.3A8,8,0,0,1,638.12,274.41Z"/><circle class="cls-11" cx="663.84" cy="274.42" r="8.21"/><circle class="cls-11" cx="697.78" cy="274.42" r="8.21"/><circle class="cls-11" cx="731.71" cy="274.42" r="8.21"/><circle class="cls-11" cx="765.65" cy="274.42" r="8.21"/><circle class="cls-11" cx="799.58" cy="274.42" r="8.21"/><path class="cls-11" d="M841.62,275.73h0a8.21,8.21,0,1,1-8.1-9.54,8,8,0,0,1,4,1C838.91,270,840.29,272.77,841.62,275.73Z"/><path class="cls-11" d="M621.15,297.4a8.2,8.2,0,0,1-16.17,2,122.51,122.51,0,0,1,8.33-10.16A8.2,8.2,0,0,1,621.15,297.4Z"/><circle class="cls-11" cx="646.87" cy="297.41" r="8.21"/><circle class="cls-11" cx="680.81" cy="297.41" r="8.21"/><circle class="cls-11" cx="714.74" cy="297.41" r="8.21"/><circle class="cls-11" cx="748.68" cy="297.41" r="8.21"/><circle class="cls-11" cx="782.61" cy="297.41" r="8.21"/><circle class="cls-11" cx="816.55" cy="297.41" r="8.21"/><path class="cls-11" d="M851.89,305.48a7.37,7.37,0,0,1-1.4.13,8.21,8.21,0,0,1-3.26-15.74C849,294.87,850.54,300.09,851.89,305.48Z"/><path class="cls-11" d="M723,250.33a8.21,8.21,0,0,1-16.17,2c6.94-1.25,12.43-2.2,15.55-3l.53-.13A7.08,7.08,0,0,1,723,250.33Z"/><path class="cls-11" d="M756.89,250.33a8.21,8.21,0,1,1-15-4.54c3.74-.61,7.78-1.23,12-1.88A8.23,8.23,0,0,1,756.89,250.33Z"/><circle class="cls-11" cx="782.61" cy="250.33" r="8.21"/><circle class="cls-11" cx="816.55" cy="250.33" r="8.21"/><circle class="cls-11" cx="629.9" cy="322.58" r="8.21"/><path class="cls-11" d="M604.18,322.58a8.2,8.2,0,0,1-16,2.62q3.26-5.58,6.49-10.72a6.84,6.84,0,0,1,1.28-.11A8.23,8.23,0,0,1,604.18,322.58Z"/><circle class="cls-11" cx="663.84" cy="322.58" r="8.21"/><circle class="cls-11" cx="697.78" cy="322.58" r="8.21"/><circle class="cls-11" cx="731.71" cy="322.58" r="8.21"/><circle class="cls-11" cx="765.65" cy="322.58" r="8.21"/><circle class="cls-11" cx="799.58" cy="322.58" r="8.21"/><circle class="cls-11" cx="833.52" cy="322.58" r="8.21"/><circle class="cls-11" cx="612.94" cy="345.57" r="8.21"/><path class="cls-11" d="M587.21,345.57a8.21,8.21,0,0,1-13.57,6.22c2.47-4.8,5-9.53,7.51-14.14A8.22,8.22,0,0,1,587.21,345.57Z"/><circle class="cls-11" cx="646.87" cy="345.57" r="8.21"/><circle class="cls-11" cx="680.81" cy="345.57" r="8.21"/><circle class="cls-11" cx="714.74" cy="345.57" r="8.21"/><circle class="cls-11" cx="748.68" cy="345.57" r="8.21"/><circle class="cls-11" cx="782.61" cy="345.57" r="8.21"/><circle class="cls-11" cx="816.55" cy="345.57" r="8.21"/><path class="cls-11" d="M857.32,350.12h0A8.21,8.21,0,1,1,855,338.73a8.48,8.48,0,0,1,2.11,2h0C857.29,343.87,857.34,347,857.32,350.12Z"/><circle class="cls-11" cx="629.9" cy="369.66" r="8.21"/><circle class="cls-11" cx="663.84" cy="369.66" r="8.21"/><circle class="cls-11" cx="697.78" cy="369.66" r="8.21"/><circle class="cls-11" cx="731.71" cy="369.66" r="8.21"/><circle class="cls-11" cx="765.65" cy="369.66" r="8.21"/><circle class="cls-11" cx="799.58" cy="369.66" r="8.21"/><circle class="cls-11" cx="833.52" cy="369.66" r="8.21"/><circle class="cls-11" cx="612.94" cy="392.64" r="8.21"/><circle class="cls-11" cx="646.87" cy="392.64" r="8.21"/><circle class="cls-11" cx="680.81" cy="392.64" r="8.21"/><circle class="cls-11" cx="714.74" cy="392.64" r="8.21"/><circle class="cls-11" cx="748.68" cy="392.64" r="8.21"/><circle class="cls-11" cx="782.61" cy="392.64" r="8.21"/><circle class="cls-11" cx="816.55" cy="392.64" r="8.21"/><path class="cls-11" d="M853,384.82c-1.24,5.06-2.51,10.38-3.81,15.92A8.21,8.21,0,1,1,853,384.82Z"/><circle class="cls-11" cx="629.9" cy="417.82" r="8.21"/><circle class="cls-11" cx="595.97" cy="417.82" r="8.21"/><circle class="cls-11" cx="663.84" cy="417.82" r="8.21"/><circle class="cls-11" cx="697.78" cy="417.82" r="8.21"/><circle class="cls-11" cx="731.71" cy="417.82" r="8.21"/><circle class="cls-11" cx="765.65" cy="417.82" r="8.21"/><circle class="cls-11" cx="799.58" cy="417.82" r="8.21"/><circle class="cls-11" cx="833.52" cy="417.82" r="8.21"/><circle class="cls-11" cx="612.94" cy="440.81" r="8.21"/><circle class="cls-11" cx="595.97" cy="369.66" r="8.21"/><circle class="cls-11" cx="579" cy="392.64" r="8.21"/><circle class="cls-11" cx="562.03" cy="417.82" r="8.21"/><circle class="cls-11" cx="579" cy="440.81" r="8.21"/><path class="cls-11" d="M570.25,369.65a8.21,8.21,0,0,1-8.21,8.21h0a6.09,6.09,0,0,1-1.28-.11c2.23-4.67,4.53-9.39,6.86-14.1A8.17,8.17,0,0,1,570.25,369.65Z"/><circle class="cls-11" cx="545.07" cy="440.81" r="8.21"/><circle class="cls-11" cx="646.87" cy="440.81" r="8.21"/><circle class="cls-11" cx="680.81" cy="440.81" r="8.21"/><circle class="cls-11" cx="714.74" cy="440.81" r="8.21"/><circle class="cls-11" cx="748.68" cy="440.81" r="8.21"/><circle class="cls-11" cx="782.61" cy="440.81" r="8.21"/><circle class="cls-11" cx="816.55" cy="440.81" r="8.21"/><circle class="cls-11" cx="629.9" cy="464.89" r="8.21"/><circle class="cls-11" cx="663.84" cy="464.89" r="8.21"/><circle class="cls-11" cx="697.78" cy="464.89" r="8.21"/><circle class="cls-11" cx="731.71" cy="464.89" r="8.21"/><circle class="cls-11" cx="765.65" cy="464.89" r="8.21"/><circle class="cls-11" cx="799.58" cy="464.89" r="8.21"/><path class="cls-11" d="M836.63,457.29q-1.68,7.89-3.32,15.8a8.21,8.21,0,1,1,3.32-15.8Z"/><path class="cls-11" d="M612.94,479.67a8.12,8.12,0,0,1,5.64,2.25h0q-4.83,6.75-9.66,13.11a8.21,8.21,0,0,1,4-15.37Z"/><circle class="cls-11" cx="646.87" cy="487.88" r="8.21"/><circle class="cls-11" cx="680.81" cy="487.88" r="8.21"/><circle class="cls-11" cx="714.74" cy="487.88" r="8.21"/><circle class="cls-11" cx="748.68" cy="487.88" r="8.21"/><circle class="cls-11" cx="782.61" cy="487.88" r="8.21"/><circle class="cls-11" cx="816.55" cy="487.88" r="8.21"/><circle class="cls-11" cx="632.09" cy="513.06" r="8.21"/><path class="cls-11" d="M600.26,506.07c-3.54,4.36-7.06,8.49-10.52,12.34A8.2,8.2,0,0,1,596,504.85,8.07,8.07,0,0,1,600.26,506.07Z"/><circle class="cls-11" cx="663.84" cy="513.06" r="8.21"/><circle class="cls-11" cx="697.78" cy="513.06" r="8.21"/><circle class="cls-11" cx="731.71" cy="513.06" r="8.21"/><circle class="cls-11" cx="765.65" cy="513.06" r="8.21"/><circle class="cls-11" cx="799.58" cy="513.06" r="8.21"/><circle class="cls-11" cx="595.97" cy="464.89" r="8.21"/><circle class="cls-11" cx="579" cy="487.88" r="8.21"/><circle class="cls-11" cx="562.03" cy="513.06" r="8.21"/><circle class="cls-11" cx="545.07" cy="536.05" r="8.21"/><circle class="cls-11" cx="562.03" cy="464.89" r="8.21"/><circle class="cls-11" cx="545.07" cy="487.88" r="8.21"/><circle class="cls-11" cx="528.1" cy="513.06" r="8.21"/><circle class="cls-11" cx="511.13" cy="536.05" r="8.21" transform="translate(-166.23 236.4) rotate(-22.5)"/><circle class="cls-11" cx="528.1" cy="464.89" r="8.21"/><circle class="cls-11" cx="511.13" cy="487.88" r="8.21" transform="matrix(0.16, -0.99, 0.99, 0.16, -52.33, 914.26)"/><circle class="cls-11" cx="494.16" cy="513.06" r="8.21"/><path class="cls-11" d="M485.41,536a8.19,8.19,0,0,1-3.7,6.86c-3.77-.71-7.56-1.48-11.33-2.28a8.21,8.21,0,1,1,15-4.58Z"/><path class="cls-11" d="M502.38,464.89a8.21,8.21,0,0,1-16.42,0,7.76,7.76,0,0,1,.49-2.78L501,460.45A8.25,8.25,0,0,1,502.38,464.89Z"/><circle class="cls-11" cx="477.19" cy="487.88" r="8.21"/><circle class="cls-11" cx="460.23" cy="513.06" r="8.21"/><path class="cls-11" d="M451.47,536v.29c-5.24-1.26-10.44-2.58-15.54-3.94A8.2,8.2,0,0,1,451.47,536Z"/><path class="cls-11" d="M468.44,464.89a8.21,8.21,0,0,1-16.35,1l16.31-1.78C468.42,464.37,468.44,464.63,468.44,464.89Z"/><circle class="cls-11" cx="443.26" cy="487.88" r="8.21"/><circle class="cls-11" cx="426.29" cy="513.06" r="8.21"/><path class="cls-11" d="M434,467.82a8.2,8.2,0,0,1-14.58,1.48Z"/><circle class="cls-11" cx="409.32" cy="487.88" r="8.21"/><path class="cls-11" d="M400.57,513.06a8.19,8.19,0,0,1-4.83,7.47c-3.7-1.21-7.25-2.41-10.62-3.58a8.21,8.21,0,1,1,14.48-7.74,8.33,8.33,0,0,1,1,3.85Z"/><circle class="cls-11" cx="375.39" cy="487.88" r="8.21"/><circle class="cls-11" cx="646.87" cy="536.05" r="8.21"/><circle class="cls-11" cx="680.81" cy="536.05" r="8.21"/><circle class="cls-11" cx="714.74" cy="536.05" r="8.21"/><circle class="cls-11" cx="748.68" cy="536.05" r="8.21"/><circle class="cls-11" cx="782.61" cy="536.05" r="8.21"/><path class="cls-11" d="M821.92,529.84c-.92,4.8-1.81,9.46-2.65,13.94a8,8,0,0,1-2.72.48,8.22,8.22,0,1,1,5.37-14.42Z"/><path class="cls-11" d="M638.12,560.13a8.19,8.19,0,0,1-7.15,8.13c-.81-5.18-1.64-10.62-2.47-16.21a7.32,7.32,0,0,1,1.41-.13A8.23,8.23,0,0,1,638.12,560.13Z"/><circle class="cls-11" cx="663.84" cy="560.13" r="8.21"/><circle class="cls-11" cx="697.78" cy="560.13" r="8.21"/><circle class="cls-11" cx="731.71" cy="560.13" r="8.21"/><circle class="cls-11" cx="765.65" cy="560.13" r="8.21"/><circle class="cls-11" cx="799.58" cy="560.13" r="8.21"/><circle class="cls-11" cx="646.87" cy="583.12" r="8.21"/><circle class="cls-11" cx="680.81" cy="583.12" r="8.21"/><circle class="cls-11" cx="714.74" cy="583.12" r="8.21"/><circle class="cls-11" cx="748.68" cy="583.12" r="8.21"/><circle class="cls-11" cx="782.61" cy="583.12" r="8.21"/><path class="cls-11" d="M813.59,575.46c-.92,5.51-1.67,10.25-2.19,14a8.21,8.21,0,0,1,2.19-14Z"/><path class="cls-11" d="M672,608.29a8.2,8.2,0,0,1-4.85,7.49h0c-2.91-.31-5.74-.69-8.5-1.09a8.21,8.21,0,1,1,13.36-6.4Z"/><circle class="cls-11" cx="697.78" cy="608.3" r="8.21"/><circle class="cls-11" cx="731.71" cy="608.3" r="8.21"/><path class="cls-11" d="M773.86,608.29a8.27,8.27,0,0,1-1.53,4.78c-3.76.6-7.7,1.16-11.79,1.65h0a8.21,8.21,0,1,1,13.33-6.43Z"/><path class="cls-11" d="M806.18,603.41c-3.3,2.07-8.37,4-14.76,5.72a5.89,5.89,0,0,1,0-.84,8.2,8.2,0,0,1,14.8-4.88Z"/></g><path id="SHADOW" class="cls-12" d="M620.62,484.87C649.87,446,667.32,408,684.3,374.44"/></g><path id="HAND" class="cls-7" d="M292.66,471.17c9.72-2.09,43.91-1.91,61.41,2.84l-3.31,29s-16.46,8.06-27.33,3.59-19.07-13.27-26.81-10.86-17.26,8.51-21.91,7.4a49.13,49.13,0,0,1-15.62-6.47C260.94,493.27,280.68,474.88,292.66,471.17Z"/><g id="HEAD"><path id="NECK" class="cls-7" d="M708.77,184.19c2.71,10.86,13.57,57.93,13.57,65.17s74.71-1.14,89.19-13.81c0,0-29.45-32.82-36.69-82.14Z"/><path id="HEAD-2" class="cls-13" d="M765.67,158.46S742.88,206,695.53,202.21a9.59,9.59,0,0,1-7.65-4.92c-6.5-11.8-23.74-45-23.11-64.71.78-24.21,11.08-69.1,11.08-69.1S733.51,51.54,765.52,105C783.45,135,765.67,158.46,765.67,158.46Z"/><g id="HAIR"><path class="cls-14" d="M917.37,264.89s-78.61,24.93-184.46,32.52c0,0-36.85-41.86,5.61-93.51,24.27-29.54-5.48-67-5.48-67-34-11.68-74.42-13-74.42-13-13.49-21.76-13.86-52.65,23.66-83.16,38.87-31.55,115-63.07,160-13.1,25.76,28.54,8.28,85.77,41.24,103.13C987.24,185.33,917.37,264.89,917.37,264.89Z"/><path class="cls-14" d="M694,40.74c38.91-31.56,115-63.07,160-13.11,25.75,28.55,10.86,95.71,43.77,113.07"/><path class="cls-14" d="M649.57,123.9c-13.49-21.76-7.84-59.05,34.08-81.75"/><path class="cls-15" d="M742.66,237.44s-50.25-132.59,53.53-.39c59.39,75.67,27.94-24.86,27.94-24.86"/><path class="cls-15" d="M750.35,214.12s-250.18-230.79,92-15C1038.16,322.63,860,145.87,860,145.87"/></g></g></g><g id="CHAIR"><path class="cls-6" d="M991.15,443.14c-5.31,20-76.4,149-83.45,331.15a98,98,0,0,1-97.88,94.27H489.09c-10.91,0-18.33,4.38-23,11.49a3.38,3.38,0,0,1-6.16-1.91V861.55c0-22,17.89-43.88,39.93-43.82l97.92.08c43.84.13,69.79-30.54,71.45-74.35,6.12-161.8,58.16-264.21,81.74-297.37a45.27,45.27,0,0,1,36.9-19H983C991.26,427.1,993.27,435.15,991.15,443.14Z"/><path class="cls-6" d="M988.41,441.94H797.63a43,43,0,0,0-35,18c-22.48,31.62-70.41,160.27-76.28,305.9a68.57,68.57,0,0,1-68.54,65.74H496.44a36.52,36.52,0,0,0-36.52,36.52h0"/><rect class="cls-6" x="659.87" y="934.17" width="35" height="322.12"/><path class="cls-16" d="M602.45,1290.86c0-18.87,14.1-34.17,31.49-34.17h87c17.39,0,31.5,15.3,31.5,34.17"/><circle class="cls-6" cx="750.45" cy="1306.36" r="24.54"/><circle class="cls-6" cx="605.45" cy="1306.36" r="24.54"/><path class="cls-6" d="M639,869.14h76.67v48.08a27.59,27.59,0,0,1-27.59,27.59H666.63A27.59,27.59,0,0,1,639,917.24v-48.1Z"/><path class="cls-17" d="M535.38,1290.68a34,34,0,0,1,34-34h227a34,34,0,0,1,34,34h0"/><circle class="cls-6" cx="528.45" cy="1306.36" r="24.54" transform="translate(-812.09 1740.87) rotate(-85.93)"/><circle class="cls-6" cx="834.45" cy="1306.36" r="24.54"/></g></g></g></g><g class="cls-18"><g class="cls-19"><polyline class="cls-20" points="145.38 190.07 130.05 190.28 142.39 251.09 114.17 251.47 101.83 190.65 86.5 190.86 115.06 331.6 130.39 331.39 117.03 265.54 145.24 265.17 158.61 331.02 173.94 330.81 145.38 190.07"/></g></g><g class="cls-18"><g class="cls-21"><path class="cls-20" d="M210.05,267.71,209,262.32c-3.53-17.37-3.13-22.78,3.92-22.88h.68c6.67.34,8.92,7.06,11.34,19l1.84,9-16.69.23m2.29-42c-.68,0-1.38-.05-2.11,0-18,.25-20.44,13.87-15,40.46l4.66,22.93C205,314.28,212.12,328,229,328.89c.71,0,1.44.05,2.18,0,16-.22,19.61-12.64,15.52-32.79l-.77-3.82-14.11.18,1.23,6.09c2,10.08,2,16.52-4.52,16.61h-.67c-5.83-.3-9.29-5.52-11.67-17.25l-4.09-20.16,30.93-.41-1.66-8.16c-5.36-26.45-11-42.55-29-43.46"/></g></g><g class="cls-18"><g class="cls-22"><polyline points="271.47 182.88 256.95 183.07 285.51 323.82 300.03 323.63 271.47 182.88"/></g></g><g class="cls-18"><g class="cls-23"><polyline class="cls-20" points="312.9 180.79 298.39 180.99 326.95 321.73 341.46 321.53 312.9 180.79"/></g></g><g class="cls-18"><g class="cls-24"><path class="cls-20" d="M386.76,307.16c-7.92-.4-10.06-10.93-12.29-22l-6.39-31.45c-2.28-11.29-4.51-22.24,3.9-22.36h.58c7.8.4,10,11.1,12.21,22.13L391.16,285c2.29,11.29,4.47,22.07-3.8,22.18h-.6M371.1,217.71c-.62,0-1.26,0-1.9,0-17.51.23-20,14.73-15.42,37.32l5.92,29.19c4.42,21.74,12.32,35.85,28.51,36.67.63,0,1.28,0,1.93,0,17.37-.23,19.87-14.72,15.28-37.32l-5.92-29.18c-4.41-21.75-12.32-35.86-28.4-36.68"/></g></g><g class="cls-18"><g class="cls-25"><path class="cls-20" d="M453.53,296.57l-14.65.2,3.88,19.11,14.66-.19-3.89-19.12M428.85,174.93l-14.65.2,27.07,110.63,5.16-.07L428.85,174.93"/></g></g></g></g></svg>