<svg xmlns="http://www.w3.org/2000/svg" xmlns:xlink="http://www.w3.org/1999/xlink" viewBox="0 0 941.01 1333.01"><defs><style>.cls-1,.cls-11,.cls-15,.cls-16,.cls-19,.cls-4,.cls-5{fill:none;}.cls-10,.cls-17,.cls-2,.cls-20,.cls-3,.cls-6{fill:#fff;}.cls-17,.cls-19,.cls-2,.cls-20,.cls-3,.cls-5,.cls-6{stroke:#202020;}.cls-2,.cls-5{stroke-linecap:round;}.cls-11,.cls-12,.cls-15,.cls-16,.cls-17,.cls-19,.cls-2,.cls-3,.cls-4,.cls-5,.cls-6{stroke-miterlimit:10;}.cls-17,.cls-19,.cls-2,.cls-5,.cls-6{stroke-width:6px;}.cls-4{stroke:#fff;}.cls-7{fill:#d3bfb5;}.cls-8{fill:#05010c;}.cls-9{fill:#7a787d;}.cls-11{stroke:#f3f3f3;stroke-width:4px;}.cls-12{fill:#f9f7f0;stroke:#c8c4b8;}.cls-13{fill:#d4bdb0;}.cls-14{fill:#ffffbe;}.cls-15{stroke:#dabcaa;stroke-width:3px;}.cls-16{stroke:#f0da8d;}.cls-17{opacity:0.91;}.cls-18{fill:#fc9;}.cls-20{stroke-miterlimit:10;stroke-width:6px;}.cls-21{clip-path:url(#clip-path);}.cls-22{fill:#050d18;}.cls-23{clip-path:url(#clip-path-2);}.cls-24{clip-path:url(#clip-path-3);}.cls-25{clip-path:url(#clip-path-4);}.cls-26{clip-path:url(#clip-path-5);}.cls-27{clip-path:url(#clip-path-6);}</style><clipPath id="clip-path"><polygon class="cls-1" points="109.45 330.31 85.87 186.05 150.99 189.34 174.56 333.61 109.45 330.31"/></clipPath><clipPath id="clip-path-2"><polygon class="cls-1" points="205.24 326.68 188.38 223.53 235.39 225.91 252.25 329.06 205.24 326.68"/></clipPath><clipPath id="clip-path-3"><polygon class="cls-1" points="279.91 322.52 256.8 181.12 277.07 182.15 300.18 323.55 279.91 322.52"/></clipPath><clipPath id="clip-path-4"><polygon class="cls-1" points="321.34 320.44 298.23 179.04 318.51 180.06 341.62 321.46 321.34 320.44"/></clipPath><clipPath id="clip-path-5"><polygon class="cls-1" points="364.34 318.64 347.49 215.51 394.86 217.91 411.71 321.04 364.34 318.64"/></clipPath><clipPath id="clip-path-6"><polygon class="cls-1" points="437.15 314.58 414.04 173.18 434.46 174.21 457.57 315.62 437.15 314.58"/></clipPath></defs><g id="Layer_2" data-name="Layer 2"><g id="Layer_1-2" data-name="Layer 1"><g id="Layer_2-2" data-name="Layer 2"><g id="Layer_1-2-2" data-name="Layer 1-2"><g id="Layer_2-2-2" data-name="Layer 2-2"><g id="Слой_1" data-name="Слой 1"><g id="_2" data-name=" 2"><g id="COMPUTER"><path class="cls-2" d="M59,507.13H487.31a17.76,17.76,0,0,1,17.76,17.74h0v4.7a17.76,17.76,0,0,1-17.76,17.75H59.89"/><polyline class="cls-3" points="385.26 744.51 385.26 547.99 423.93 547.99 423.93 743.61"/><polygon class="cls-4" points="385.26 560.33 385.26 547.99 423.93 547.99 423.93 590.88 385.26 560.33"/><polyline class="cls-5" points="385.26 729.51 385.26 547.99 423.93 547.99 423.93 741.71"/><polygon class="cls-6" points="425.5 489.47 425.5 500.35 268.27 462.14 111.04 500.35 111.04 489.47 251.81 443.85 251.81 309.18 286.78 309.18 286.78 444.52 425.5 489.47"/><path class="cls-6" d="M513.16,400.67H65.28c-5.28,0-9.61-4.48-10-10.18a11.84,11.84,0,0,0-.2-1.77L3.24,107.79a11.39,11.39,0,0,1,.77-7,10,10,0,0,1,8.94-6H460.83c5.28,0,9.61,4.49,10,10.19a14.81,14.81,0,0,0,.2,1.76l51.82,280.94a11.52,11.52,0,0,1-.77,7A10,10,0,0,1,513.16,400.67Z"/><path class="cls-6" d="M500.71,387.17H73.45c-5.1,0-9.23-4.54-9.23-10.16l-48-260.24c0-5.61,4.13-10.16,9.23-10.16H452.7c5.09,0,9.23,4.55,9.23,10.16l48,260.24C509.93,382.63,505.8,387.17,500.71,387.17Z"/></g><g id="WOMAN"><g id="LEGS"><g id="RIGHT"><g id="FOOT"><path class="cls-7" d="M634,1257.74l10.77-91.54c-35.85,5-52,0-52,0L605,1235.74c-.27,11.28-19.38,56.5-29.49,60.32S611.7,1311.49,634,1257.74Z"/><path class="cls-8" d="M549,1332.06h87.91s15-35,12.67-58.3c-3-30-16.37-33.51-16.37-33.51-12.33,0-9.15,38.08-32.68,51.35-11.73,6.61-21.76,2.46-31.9,6.29C545.93,1306.45,549,1332.06,549,1332.06Z"/></g><path id="LEG" class="cls-8" d="M499.42,834.69c7.81,17.72,57.82,142.19,93.35,331.51,0,0,16.66,6.51,52,0,0,0,32.15-229.12-3.28-302.33Z"/></g><g id="LEFT"><path id="LEG-2" class="cls-8" d="M778.5,600.8S828.94,757.26,802,816.92c-45,99.35-302.58,17.77-302.58,17.77s56.24,85.57-9.17,330c0,0-2.36,9.94-52.9,2,0,0-62-352.5-62-427.62,0-61.5,88.82-80.64,234.07-67.72,0,0,19.19-21.34,33.64-66C643.1,605.29,685.42,621.67,778.5,600.8Z"/><g id="FOOT-2"><path class="cls-7" d="M479.72,1257.74l10.76-91.54c-35.84,5-52.76,0-52.76,0l13.06,69.54c-.26,11.28-19.38,56.5-29.49,60.32S457.46,1311.49,479.72,1257.74Z"/><path class="cls-8" d="M394.73,1332.06h87.92s15-35,12.66-58.3c-3-30-16.36-33.51-16.36-33.51-12.33,0-9.16,38.08-32.69,51.35-11.72,6.61-21.75,2.46-31.9,6.29C391.7,1306.45,394.73,1332.06,394.73,1332.06Z"/></g></g></g><g id="BLOUSE"><path id="BLOUSE-2" class="cls-9" d="M853.14,383.22c-17.54,71.66-42,196.86-42.69,213.84s-119.65,27.83-172.6,12.22c0,0-14.63-84.14-18.29-129.72-27.75,39-56.06,69.3-75.3,69.3-70.6,0-187.06-39.59-195.89-49.09l5.13-26.7c29.19.68,172.43-16.56,172.43-16.56s56.92-144.82,94.14-174.73l.16-.14c24.44-22.56,87.89-29.79,102.11-33.29,14.71-3.62,89.73-13.8,89.73-13.8C837.52,251,868.75,319.4,853.14,383.22Z"/><g id="PATTERN"><path class="cls-10" d="M638.12,273.4a8.22,8.22,0,0,1-14.44,5.36,77.94,77.94,0,0,1,13.88-8.3A8,8,0,0,1,638.12,273.4Z"/><circle class="cls-10" cx="663.84" cy="273.41" r="8.21"/><circle class="cls-10" cx="697.78" cy="273.41" r="8.21"/><circle class="cls-10" cx="731.71" cy="273.41" r="8.21"/><circle class="cls-10" cx="765.65" cy="273.41" r="8.21"/><circle class="cls-10" cx="799.58" cy="273.41" r="8.21"/><path class="cls-10" d="M841.62,274.72h0a8.21,8.21,0,1,1-8.1-9.54,8.08,8.08,0,0,1,4,1C838.91,269,840.29,271.76,841.62,274.72Z"/><path class="cls-10" d="M621.15,296.39a8.2,8.2,0,0,1-16.17,2,122.51,122.51,0,0,1,8.33-10.16A8.21,8.21,0,0,1,621.15,296.39Z"/><circle class="cls-10" cx="646.87" cy="296.4" r="8.21"/><circle class="cls-10" cx="680.81" cy="296.4" r="8.21"/><circle class="cls-10" cx="714.74" cy="296.4" r="8.21"/><circle class="cls-10" cx="748.68" cy="296.4" r="8.21"/><circle class="cls-10" cx="782.61" cy="296.4" r="8.21"/><circle class="cls-10" cx="816.55" cy="296.4" r="8.21"/><path class="cls-10" d="M851.89,304.47a7.3,7.3,0,0,1-1.4.13,8.21,8.21,0,0,1-3.26-15.74C849,293.86,850.54,299.08,851.89,304.47Z"/><path class="cls-10" d="M723,249.32a8.21,8.21,0,0,1-16.17,2c6.94-1.25,12.43-2.2,15.55-3l.53-.13A7.17,7.17,0,0,1,723,249.32Z"/><path class="cls-10" d="M756.89,249.32a8.21,8.21,0,1,1-15-4.54c3.74-.61,7.78-1.23,12-1.88A8.23,8.23,0,0,1,756.89,249.32Z"/><circle class="cls-10" cx="782.61" cy="249.32" r="8.21"/><circle class="cls-10" cx="816.55" cy="249.32" r="8.21"/><circle class="cls-10" cx="629.9" cy="321.57" r="8.21"/><path class="cls-10" d="M604.18,321.57a8.2,8.2,0,0,1-16,2.62q3.26-5.58,6.49-10.72a7.81,7.81,0,0,1,1.28-.11A8.23,8.23,0,0,1,604.18,321.57Z"/><circle class="cls-10" cx="663.84" cy="321.57" r="8.21"/><circle class="cls-10" cx="697.78" cy="321.57" r="8.21"/><circle class="cls-10" cx="731.71" cy="321.57" r="8.21"/><circle class="cls-10" cx="765.65" cy="321.57" r="8.21"/><circle class="cls-10" cx="799.58" cy="321.57" r="8.21"/><circle class="cls-10" cx="833.52" cy="321.57" r="8.21"/><circle class="cls-10" cx="612.94" cy="344.56" r="8.21"/><path class="cls-10" d="M587.21,344.56a8.21,8.21,0,0,1-13.57,6.22c2.47-4.8,5-9.53,7.51-14.14A8.24,8.24,0,0,1,587.21,344.56Z"/><circle class="cls-10" cx="646.87" cy="344.56" r="8.21"/><circle class="cls-10" cx="680.81" cy="344.56" r="8.21"/><circle class="cls-10" cx="714.74" cy="344.56" r="8.21"/><circle class="cls-10" cx="748.68" cy="344.56" r="8.21"/><circle class="cls-10" cx="782.61" cy="344.56" r="8.21"/><circle class="cls-10" cx="816.55" cy="344.56" r="8.21"/><path class="cls-10" d="M857.32,349.11h0A8.21,8.21,0,1,1,855,337.72a8.54,8.54,0,0,1,2.11,2h0C857.29,342.86,857.34,346,857.32,349.11Z"/><circle class="cls-10" cx="629.9" cy="368.65" r="8.21"/><circle class="cls-10" cx="663.84" cy="368.65" r="8.21"/><circle class="cls-10" cx="697.78" cy="368.65" r="8.21"/><circle class="cls-10" cx="731.71" cy="368.65" r="8.21"/><circle class="cls-10" cx="765.65" cy="368.65" r="8.21"/><circle class="cls-10" cx="799.58" cy="368.65" r="8.21"/><circle class="cls-10" cx="833.52" cy="368.65" r="8.21"/><circle class="cls-10" cx="612.94" cy="391.63" r="8.21"/><circle class="cls-10" cx="646.87" cy="391.63" r="8.21"/><circle class="cls-10" cx="680.81" cy="391.63" r="8.21"/><circle class="cls-10" cx="714.74" cy="391.63" r="8.21"/><circle class="cls-10" cx="748.68" cy="391.63" r="8.21"/><circle class="cls-10" cx="782.61" cy="391.63" r="8.21"/><circle class="cls-10" cx="816.55" cy="391.63" r="8.21"/><path class="cls-10" d="M853,383.81c-1.24,5.06-2.51,10.38-3.81,15.92a8.21,8.21,0,1,1,2.56-16.22A9.09,9.09,0,0,1,853,383.81Z"/><circle class="cls-10" cx="629.9" cy="416.81" r="8.21"/><circle class="cls-10" cx="595.97" cy="416.81" r="8.21"/><circle class="cls-10" cx="663.84" cy="416.81" r="8.21"/><circle class="cls-10" cx="697.78" cy="416.81" r="8.21"/><circle class="cls-10" cx="731.71" cy="416.81" r="8.21"/><circle class="cls-10" cx="765.65" cy="416.81" r="8.21"/><circle class="cls-10" cx="799.58" cy="416.81" r="8.21"/><circle class="cls-10" cx="833.52" cy="416.81" r="8.21"/><circle class="cls-10" cx="612.94" cy="439.8" r="8.21"/><circle class="cls-10" cx="595.97" cy="368.65" r="8.21"/><circle class="cls-10" cx="579" cy="391.63" r="8.21"/><circle class="cls-10" cx="562.03" cy="416.81" r="8.21"/><circle class="cls-10" cx="579" cy="439.8" r="8.21"/><path class="cls-10" d="M570.25,368.64a8.21,8.21,0,0,1-8.21,8.21h0a6.09,6.09,0,0,1-1.28-.11c2.23-4.67,4.53-9.39,6.86-14.1A8.19,8.19,0,0,1,570.25,368.64Z"/><circle class="cls-10" cx="545.07" cy="439.8" r="8.21"/><circle class="cls-10" cx="646.87" cy="439.8" r="8.21"/><circle class="cls-10" cx="680.81" cy="439.8" r="8.21"/><circle class="cls-10" cx="714.74" cy="439.8" r="8.21"/><circle class="cls-10" cx="748.68" cy="439.8" r="8.21"/><circle class="cls-10" cx="782.61" cy="439.8" r="8.21"/><circle class="cls-10" cx="816.55" cy="439.8" r="8.21"/><circle class="cls-10" cx="629.9" cy="463.88" r="8.21"/><circle class="cls-10" cx="663.84" cy="463.88" r="8.21"/><circle class="cls-10" cx="697.78" cy="463.88" r="8.21"/><circle class="cls-10" cx="731.71" cy="463.88" r="8.21"/><circle class="cls-10" cx="765.65" cy="463.88" r="8.21"/><circle class="cls-10" cx="799.58" cy="463.88" r="8.21"/><path class="cls-10" d="M836.63,456.28q-1.68,7.89-3.32,15.8a8.21,8.21,0,1,1,3.32-15.8Z"/><path class="cls-10" d="M612.94,478.66a8.12,8.12,0,0,1,5.64,2.25h0q-4.83,6.75-9.66,13.11a8.21,8.21,0,0,1,4-15.37Z"/><circle class="cls-10" cx="646.87" cy="486.87" r="8.21"/><circle class="cls-10" cx="680.81" cy="486.87" r="8.21"/><circle class="cls-10" cx="714.74" cy="486.87" r="8.21"/><circle class="cls-10" cx="748.68" cy="486.87" r="8.21"/><circle class="cls-10" cx="782.61" cy="486.87" r="8.21"/><circle class="cls-10" cx="816.55" cy="486.87" r="8.21"/><circle class="cls-10" cx="632.09" cy="512.05" r="8.21"/><path class="cls-10" d="M600.26,505.06c-3.54,4.36-7.06,8.49-10.52,12.34a8.2,8.2,0,0,1,10.52-12.34Z"/><circle class="cls-10" cx="663.84" cy="512.05" r="8.21"/><circle class="cls-10" cx="697.78" cy="512.05" r="8.21"/><circle class="cls-10" cx="731.71" cy="512.05" r="8.21"/><circle class="cls-10" cx="765.65" cy="512.05" r="8.21"/><circle class="cls-10" cx="799.58" cy="512.05" r="8.21"/><circle class="cls-10" cx="595.97" cy="463.88" r="8.21"/><circle class="cls-10" cx="579" cy="486.87" r="8.21"/><circle class="cls-10" cx="562.03" cy="512.05" r="8.21"/><circle class="cls-10" cx="545.07" cy="535.04" r="8.21"/><circle class="cls-10" cx="562.03" cy="463.88" r="8.21"/><circle class="cls-10" cx="545.07" cy="486.87" r="8.21"/><circle class="cls-10" cx="528.1" cy="512.05" r="8.21"/><circle class="cls-10" cx="511.13" cy="535.04" r="8.21" transform="translate(-228.62 518.13) rotate(-45)"/><circle class="cls-10" cx="528.1" cy="463.88" r="8.21"/><circle class="cls-10" cx="512.45" cy="485.29" r="8.23" transform="matrix(0.32, -0.95, 0.95, 0.32, -109.78, 818.39)"/><circle class="cls-10" cx="494.16" cy="512.05" r="8.21"/><path class="cls-10" d="M485.41,535a8.19,8.19,0,0,1-3.7,6.86c-3.77-.71-7.56-1.48-11.33-2.28a8.21,8.21,0,1,1,15-4.58Z"/><path class="cls-10" d="M502.38,463.88a8.21,8.21,0,1,1-16.42,0,7.76,7.76,0,0,1,.49-2.78L501,459.44A8.36,8.36,0,0,1,502.38,463.88Z"/><circle class="cls-10" cx="477.19" cy="486.87" r="8.21"/><circle class="cls-10" cx="460.23" cy="512.05" r="8.21"/><path class="cls-10" d="M451.47,535v.29c-5.24-1.26-10.44-2.58-15.54-3.94A8.2,8.2,0,0,1,451.47,535Z"/><path class="cls-10" d="M468.44,463.88a8.21,8.21,0,0,1-16.35,1l16.31-1.78C468.42,463.36,468.44,463.62,468.44,463.88Z"/><circle class="cls-10" cx="443.26" cy="486.87" r="8.21"/><circle class="cls-10" cx="426.29" cy="512.05" r="8.21"/><path class="cls-10" d="M434,466.81a8.2,8.2,0,0,1-14.58,1.48Z"/><circle class="cls-10" cx="409.32" cy="486.87" r="8.21"/><path class="cls-10" d="M400.57,512.05a8.18,8.18,0,0,1-4.83,7.47c-3.7-1.21-7.25-2.41-10.62-3.58A8.21,8.21,0,1,1,399.51,508l.09.17a8.39,8.39,0,0,1,1,3.85Z"/><circle class="cls-10" cx="375.39" cy="486.87" r="8.21"/><circle class="cls-10" cx="646.87" cy="535.04" r="8.21"/><circle class="cls-10" cx="680.81" cy="535.04" r="8.21"/><circle class="cls-10" cx="714.74" cy="535.04" r="8.21"/><circle class="cls-10" cx="748.68" cy="535.04" r="8.21"/><circle class="cls-10" cx="782.61" cy="535.04" r="8.21"/><path class="cls-10" d="M821.92,528.83c-.92,4.8-1.81,9.46-2.65,13.94a7.87,7.87,0,0,1-2.72.48,8.22,8.22,0,1,1,5.37-14.42Z"/><path class="cls-10" d="M638.12,559.12a8.19,8.19,0,0,1-7.15,8.13c-.81-5.18-1.64-10.62-2.47-16.21a7.4,7.4,0,0,1,1.41-.13A8.23,8.23,0,0,1,638.12,559.12Z"/><circle class="cls-10" cx="663.84" cy="559.12" r="8.21"/><circle class="cls-10" cx="697.78" cy="559.12" r="8.21"/><circle class="cls-10" cx="731.71" cy="559.12" r="8.21"/><circle class="cls-10" cx="765.65" cy="559.12" r="8.21"/><circle class="cls-10" cx="799.58" cy="559.12" r="8.21"/><circle class="cls-10" cx="646.87" cy="582.11" r="8.21"/><circle class="cls-10" cx="680.81" cy="582.11" r="8.21"/><circle class="cls-10" cx="714.74" cy="582.11" r="8.21"/><circle class="cls-10" cx="748.68" cy="582.11" r="8.21"/><circle class="cls-10" cx="782.61" cy="582.11" r="8.21"/><path class="cls-10" d="M813.59,574.45c-.92,5.51-1.67,10.25-2.19,14a8.21,8.21,0,0,1,2.19-14Z"/><path class="cls-10" d="M672,607.28a8.2,8.2,0,0,1-4.85,7.49h0c-2.91-.31-5.74-.69-8.5-1.09a8.21,8.21,0,1,1,13.36-6.4Z"/><circle class="cls-10" cx="697.78" cy="607.29" r="8.21"/><circle class="cls-10" cx="731.71" cy="607.29" r="8.21"/><path class="cls-10" d="M773.86,607.28a8.24,8.24,0,0,1-1.53,4.78c-3.76.6-7.7,1.16-11.79,1.65h0a8.21,8.21,0,1,1,13.33-6.43Z"/><path class="cls-10" d="M806.18,602.4c-3.3,2.07-8.37,4-14.76,5.72a5.89,5.89,0,0,1,0-.84,8.2,8.2,0,0,1,14.8-4.88Z"/></g><path id="SHADOW" class="cls-11" d="M620.62,483.86C649.87,445,667.32,407,684.3,373.43"/></g><path id="HAND" class="cls-7" d="M292.66,470.16c9.72-2.09,43.91-1.91,61.41,2.84l-3.31,29s-16.46,8.06-27.33,3.59-19.07-13.27-26.81-10.86-17.26,8.51-21.91,7.4a49,49,0,0,1-15.62-6.47C260.94,492.26,280.68,473.87,292.66,470.16Z"/><g id="HEAD"><path class="cls-12" d="M725,223.94a59.09,59.09,0,0,1-2.59,6.21,59.88,59.88,0,0,1-9.08,13.55,49.65,49.65,0,0,0,7-16.25A62.86,62.86,0,0,0,721.72,213c0-5,.11-8.4-.76-11.94-2.17-8.81-8.17-14.65-12.19-17.85l9-4.21c.08,1.43.19,3,.33,4.58.92,10.37,2.48,15.26,4.26,24.37C723.22,212.14,724.11,217.37,725,223.94Z"/><path id="HEAD-2" class="cls-13" d="M765.67,157.45S742.88,205,695.53,201.2a9.59,9.59,0,0,1-7.65-4.92c-6.5-11.8-23.74-45-23.11-64.71.78-24.21,11.08-69.1,11.08-69.1S733.51,50.53,765.52,104C783.45,134,765.67,157.45,765.67,157.45Z"/><g id="HAIR"><path class="cls-14" d="M668.1,123.48l-.8.74c-.07-.28-.15-.55-.22-.83Z"/><path class="cls-15" d="M668.1,123.48l-.8.74c-.07-.28-.15-.55-.22-.83Z"/><path class="cls-16" d="M668.1,123.48l-.8.74c-.07-.28-.15-.55-.22-.83Z"/><path class="cls-12" d="M917.37,263.88s-78.61,24.93-184.46,32.52c0,0-22-25-12.4-60.22A76.16,76.16,0,0,1,725,223.94c-.92-6.57-1.81-11.8-2.63-16-1.78-9.11-3.34-14-4.26-24.37-.14-1.62-.25-3.15-.33-4.58-.82-14.66,1.17-20.32-3.52-27.22-5.34-7.86-10.91-4.92-17.34-13.48a28.8,28.8,0,0,1-5.19-12.06c-9.42-1.43-17.72-2.26-23.66-2.73l-1-.09c-5.3-.4-8.46-.5-8.46-.5A57.17,57.17,0,0,1,653.7,113l-4.13,9.91c-12.38-20-8.64-53,24.43-75.84,2.53-2.44,5.28-4.88,8.28-7.32C707.73,19.07,749.16-1.57,787.36.67c24.3-1.38,48.11,5.38,66.64,26,23.06,25.57,13.53,82.1,34.93,106.1C984.76,187.15,917.37,263.88,917.37,263.88Z"/></g></g></g><g id="CHAIR"><path class="cls-17" d="M937.23,439.72c-5.31,20-76.4,149-83.45,331.15a98,98,0,0,1-97.88,94.27H435.17c-10.91,0-18.33,4.38-23,11.49a3.38,3.38,0,0,1-6.16-1.91V858.13c0-22,17.89-43.88,39.93-43.82l22.5,0,75.42.06c43.84.13,69.79-30.54,71.45-74.35q.91-24.22,3.13-46.67c13.1-134.89,57.38-220.85,78.61-250.7a45.27,45.27,0,0,1,36.9-19H929.08C937.34,423.68,939.35,431.73,937.23,439.72Z"/><path class="cls-18" d="M459.93,866.15v.93h0C459.92,866.77,459.92,866.46,459.93,866.15Z"/><rect class="cls-6" x="659.87" y="933.16" width="35" height="322.12"/><path class="cls-19" d="M602.45,1280.92c0-18.87,14.1-25.24,31.49-25.24h87c17.39,0,31,9.41,31,28.28"/><circle class="cls-6" cx="750.45" cy="1305.35" r="24.54"/><circle class="cls-6" cx="605.45" cy="1305.35" r="24.54"/><path class="cls-6" d="M639,868.13h76.67v48.08a27.59,27.59,0,0,1-27.59,27.59H666.63A27.59,27.59,0,0,1,639,916.25V868.13Z"/><path class="cls-5" d="M536.25,1282c0-18.78,14.35-26.33,33.13-26.33h227c18.78,0,32.28,8.13,32.88,16.84l.64,6.54"/><circle class="cls-20" cx="528.48" cy="1305.46" r="24.54" transform="translate(-838.63 1643.89) rotate(-81.86)"/><ellipse class="cls-6" cx="830.38" cy="1305.46" rx="22.59" ry="24.99" transform="translate(-679.89 969.51) rotate(-45)"/></g></g></g></g><g class="cls-21"><polyline class="cls-22" points="145.38 189.06 130.05 189.27 142.39 250.08 114.17 250.46 101.83 189.64 86.5 189.85 115.06 330.59 130.39 330.38 117.03 264.53 145.24 264.16 158.61 330.01 173.94 329.8 145.38 189.06"/></g><g class="cls-23"><path class="cls-22" d="M210.05,266.7,209,261.31c-3.53-17.37-3.13-22.78,3.92-22.88h.68c6.67.34,8.92,7.06,11.34,19l1.84,9-16.69.23m2.29-42c-.68,0-1.38,0-2.11,0-18,.25-20.44,13.87-15,40.46l4.66,22.93C205,313.27,212.12,327,229,327.88c.71,0,1.44.05,2.18,0,16-.22,19.61-12.64,15.52-32.79l-.77-3.82-14.11.18,1.23,6.09c2,10.08,2,16.52-4.52,16.61h-.67c-5.83-.3-9.29-5.52-11.67-17.25l-4.09-20.16,30.93-.41-1.66-8.16c-5.36-26.45-11-42.55-29-43.46"/></g><g class="cls-24"><polyline points="271.47 181.87 256.95 182.06 285.51 322.81 300.03 322.62 271.47 181.87"/></g><g class="cls-25"><polyline class="cls-22" points="312.9 179.78 298.39 179.98 326.95 320.72 341.46 320.52 312.9 179.78"/></g><g class="cls-26"><path class="cls-22" d="M386.76,306.15c-7.92-.4-10.06-10.93-12.29-22l-6.39-31.45c-2.28-11.29-4.51-22.24,3.9-22.36h.58c7.8.4,10,11.1,12.21,22.13L391.16,284c2.29,11.29,4.47,22.07-3.8,22.18h-.6M371.1,216.7h-1.9c-17.51.23-20,14.73-15.42,37.32l5.92,29.19c4.42,21.74,12.32,35.85,28.51,36.67h1.93c17.37-.23,19.87-14.72,15.28-37.32l-5.92-29.18c-4.41-21.75-12.32-35.86-28.4-36.68"/></g><g class="cls-27"><path class="cls-22" d="M453.53,295.56l-14.65.2,3.88,19.11,14.66-.19-3.89-19.12M428.85,173.92l-14.65.2,27.07,110.63,5.16-.07L428.85,173.92"/></g></g></g></g></g></svg>